<svg width="54" height="53" viewBox="0 0 54 53" fill="none" xmlns="http://www.w3.org/2000/svg">
<path d="M27 0.5C41.6444 0.5 53.5 12.1494 53.5 26.5C53.5 40.8506 41.6444 52.5 27 52.5C12.3556 52.5 0.5 40.8506 0.5 26.5C0.5 12.1494 12.3556 0.5 27 0.5Z" stroke="#5A7150"/>
<path d="M26 14.5L34 19.5L31 24.5H37.5V36.5H34V28.5H32.5L32 36.5L27.5 40.5H22L16 35V29.5L18 27L20 29C20 29 19 33 20 34L23 37H26L29.5 34V30.5L26 27C24.7999 26.6 23.8333 26.8333 23.5 27L21 28.5L19 26L26.5 19.5L25 18.5L22 21C19.2 21.4 19.1666 19.8333 19.5 19L23.5 15C24.3 14.2 25.5 14.3333 26 14.5Z" fill="#5A7150"/>
<circle cx="34" cy="14.5" r="2.5" fill="#5A7150"/>
</svg>
