<svg width="54" height="53" viewBox="0 0 54 53" fill="none" xmlns="http://www.w3.org/2000/svg">
<path d="M23.3532 23.0671C23.2948 23.1445 23.2363 23.2042 23.1778 23.2464C23.1194 23.2886 23.039 23.3097 22.9367 23.3097C22.827 23.3097 22.7065 23.2675 22.5749 23.1831C22.4434 23.0917 22.2789 22.9933 22.0816 22.8878C21.8916 22.7824 21.6541 22.6874 21.3691 22.6031C21.0914 22.5117 20.7479 22.466 20.3386 22.466C19.7905 22.466 19.3082 22.5609 18.8916 22.7507C18.475 22.9335 18.1242 23.2007 17.8392 23.5523C17.5615 23.9038 17.3496 24.3292 17.2034 24.8284C17.0646 25.3276 16.9951 25.8865 16.9951 26.5053C16.9951 27.1521 17.0719 27.7287 17.2253 28.2349C17.3788 28.7341 17.5944 29.156 17.8721 29.5005C18.1571 29.838 18.497 30.0981 18.8916 30.2809C19.2935 30.4567 19.743 30.5446 20.24 30.5446C20.715 30.5446 21.106 30.4918 21.4129 30.3864C21.7199 30.2739 21.972 30.1508 22.1693 30.0173C22.3739 29.8837 22.542 29.7641 22.6736 29.6587C22.8124 29.5462 22.9476 29.4899 23.0792 29.4899C23.24 29.4899 23.3642 29.5497 23.4519 29.6692L24 30.3547C23.7588 30.643 23.4848 30.8891 23.1778 31.093C22.8709 31.2969 22.5384 31.4692 22.1803 31.6098C21.8295 31.7434 21.4604 31.8418 21.0731 31.9051C20.6857 31.9684 20.2911 32 19.8892 32C19.1949 32 18.5481 31.877 17.9488 31.6309C17.3569 31.3848 16.8417 31.0297 16.4032 30.5657C15.9647 30.0946 15.6212 29.5181 15.3727 28.836C15.1242 28.154 15 27.3771 15 26.5053C15 25.7108 15.1133 24.976 15.3398 24.3011C15.5737 23.6261 15.9099 23.046 16.3484 22.5609C16.7942 22.0687 17.3386 21.6855 17.9817 21.4113C18.6322 21.1371 19.3776 21 20.218 21C21 21 21.687 21.123 22.2789 21.3691C22.8782 21.6082 23.408 21.9492 23.8685 22.3921L23.3532 23.0671Z" fill="#5A7150"/>
<path d="M39.3532 23.0671C39.2948 23.1445 39.2363 23.2042 39.1778 23.2464C39.1194 23.2886 39.039 23.3097 38.9367 23.3097C38.827 23.3097 38.7065 23.2675 38.5749 23.1831C38.4434 23.0917 38.2789 22.9933 38.0816 22.8878C37.8916 22.7824 37.6541 22.6874 37.3691 22.6031C37.0914 22.5117 36.7479 22.466 36.3386 22.466C35.7905 22.466 35.3082 22.5609 34.8916 22.7507C34.475 22.9335 34.1242 23.2007 33.8392 23.5523C33.5615 23.9038 33.3496 24.3292 33.2034 24.8284C33.0646 25.3276 32.9951 25.8865 32.9951 26.5053C32.9951 27.1521 33.0719 27.7287 33.2253 28.2349C33.3788 28.7341 33.5944 29.156 33.8721 29.5005C34.1571 29.838 34.497 30.0981 34.8916 30.2809C35.2935 30.4567 35.743 30.5446 36.24 30.5446C36.715 30.5446 37.106 30.4918 37.4129 30.3864C37.7199 30.2739 37.972 30.1508 38.1693 30.0173C38.3739 29.8837 38.542 29.7641 38.6736 29.6587C38.8124 29.5462 38.9476 29.4899 39.0792 29.4899C39.24 29.4899 39.3642 29.5497 39.4519 29.6692L40 30.3547C39.7588 30.643 39.4848 30.8891 39.1778 31.093C38.8709 31.2969 38.5384 31.4692 38.1803 31.6098C37.8295 31.7434 37.4604 31.8418 37.0731 31.9051C36.6857 31.9684 36.2911 32 35.8892 32C35.1949 32 34.5481 31.877 33.9488 31.6309C33.3569 31.3848 32.8417 31.0297 32.4032 30.5657C31.9647 30.0946 31.6212 29.5181 31.3727 28.836C31.1242 28.154 31 27.3771 31 26.5053C31 25.7108 31.1133 24.976 31.3398 24.3011C31.5737 23.6261 31.9099 23.046 32.3484 22.5609C32.7942 22.0687 33.3386 21.6855 33.9817 21.4113C34.6322 21.1371 35.3776 21 36.218 21C37 21 37.687 21.123 38.2789 21.3691C38.8782 21.6082 39.408 21.9492 39.8685 22.3921L39.3532 23.0671Z" fill="#5A7150"/>
<path d="M27 0.5C41.6444 0.5 53.5 12.1494 53.5 26.5C53.5 40.8506 41.6444 52.5 27 52.5C12.3556 52.5 0.5 40.8506 0.5 26.5C0.5 12.1494 12.3556 0.5 27 0.5Z" stroke="#5A7150"/>
</svg>
